<?xml version="1.0" encoding="UTF-8" standalone="no"?>
<!DOCTYPE svg PUBLIC "-//W3C//DTD SVG 20010904//EN"
              "http://www.w3.org/TR/2001/REC-SVG-20010904/DTD/svg10.dtd">

<svg xmlns="http://www.w3.org/2000/svg"
     width="180.663mm" height="180.663mm"
     viewBox="0 0 512 512">
  <path fill="black" stroke="none"
        d="M 352.00,25.00
           C 363.32,31.06 373.96,36.63 382.96,46.00
             399.17,62.87 407.40,85.02 416.69,106.00
             419.60,112.56 418.90,112.76 423.00,120.00
             432.26,96.72 442.84,71.25 444.00,46.00
             449.72,48.58 453.31,52.53 458.00,56.58
             475.16,71.39 482.28,83.94 487.00,106.00
             491.88,128.82 492.04,143.99 492.00,167.00
             492.00,167.00 490.96,179.00 490.96,179.00
             490.96,179.00 490.96,188.00 490.96,188.00
             489.02,207.01 485.30,226.32 478.01,244.00
             472.25,257.98 469.03,262.43 461.45,275.00
             459.18,278.75 454.80,286.86 451.68,289.49
             448.52,292.15 440.24,293.17 436.00,294.00
             436.00,294.00 398.00,301.00 398.00,301.00
             398.00,301.00 408.12,263.00 408.12,263.00
             408.12,263.00 424.29,205.00 424.29,205.00
             424.29,205.00 432.00,178.00 432.00,178.00
             432.00,178.00 406.00,186.66 406.00,186.66
             406.00,186.66 371.00,198.69 371.00,198.69
             371.00,198.69 347.00,207.00 347.00,207.00
             347.00,207.00 349.00,175.00 349.00,175.00
             349.00,175.00 294.00,193.00 294.00,193.00
             294.00,193.00 295.83,170.00 295.83,170.00
             296.07,167.55 295.71,163.30 297.02,161.31
             298.59,158.94 302.41,158.72 305.00,158.11
             311.63,156.57 315.87,155.31 322.00,152.24
             337.71,144.39 351.29,131.85 359.02,116.00
             368.88,96.58 364.54,73.84 359.02,54.00
             356.17,44.60 352.22,34.83 352.00,25.00 Z
           M 437.00,312.00
           C 433.11,319.25 427.11,327.16 422.29,334.00
             411.23,349.72 402.35,362.95 383.00,369.48
             374.56,372.33 364.90,373.99 356.00,374.00
             356.00,374.00 349.00,374.00 349.00,374.00
             326.92,373.97 304.75,362.61 285.01,379.33
             281.91,381.96 279.92,384.55 277.83,388.00
             275.61,391.65 273.60,395.87 272.49,400.00
             271.20,404.79 270.02,414.98 270.00,420.00
             270.00,420.00 270.00,438.00 270.00,438.00
             269.94,443.23 268.78,450.99 267.28,456.00
             265.88,460.65 263.25,467.01 260.53,471.00
             247.60,489.94 223.81,487.86 204.00,485.28
             204.00,485.28 156.00,476.63 156.00,476.63
             156.00,476.63 133.00,469.67 133.00,469.67
             122.84,466.32 112.66,462.86 103.00,458.22
             61.16,438.12 42.91,399.22 30.58,357.00
             21.45,325.77 17.41,295.90 26.15,264.00
             33.25,238.09 53.98,207.69 71.93,188.00
             83.99,174.77 100.99,157.98 117.00,149.97
             131.99,142.48 149.41,139.81 166.00,140.00
             181.88,140.19 202.69,144.95 218.00,149.42
             218.00,149.42 233.00,154.12 233.00,154.12
             245.09,157.31 261.52,159.99 274.00,161.00
             274.00,161.00 269.72,206.00 269.72,206.00
             269.72,206.00 268.00,223.00 268.00,223.00
             268.00,223.00 327.00,205.00 327.00,205.00
             327.00,205.00 325.00,236.00 325.00,236.00
             325.00,236.00 375.00,218.31 375.00,218.31
             375.00,218.31 407.00,208.00 407.00,208.00
             407.00,208.00 397.42,246.00 397.42,246.00
             397.42,246.00 384.63,296.00 384.63,296.00
             384.63,296.00 378.00,322.00 378.00,322.00
             378.00,322.00 409.00,316.55 409.00,316.55
             409.00,316.55 437.00,312.00 437.00,312.00 Z" />
</svg>
